<svg xmlns="http://www.w3.org/2000/svg" version="1.1" xmlns:xlink="http://www.w3.org/1999/xlink" xmlns:svgjs="http://svgjs.dev/svgjs" width="1000" height="1000" viewBox="0 0 1000 1000"><rect width="1000" height="1000" fill="#ffffff"></rect><g transform="matrix(0.7,0,0,0.7,149.57575757575756,282.1265587044535)"><svg viewBox="0 0 396 247" data-background-color="#ffffff" preserveAspectRatio="xMidYMid meet" height="623" width="1000" xmlns="http://www.w3.org/2000/svg" xmlns:xlink="http://www.w3.org/1999/xlink"><g id="tight-bounds" transform="matrix(1,0,0,1,0.2400000000000091,-0.09999999999999432)"><svg viewBox="0 0 395.52 247.2" height="247.2" width="395.52"><g><svg></svg></g><g><svg viewBox="0 0 395.52 247.2" height="247.2" width="395.52"><g transform="matrix(1,0,0,1,108.52222341650672,47.215199999999996)"><svg viewBox="0 0 178.47555316698654 152.7696" height="152.7696" width="178.47555316698654"><g><svg viewBox="0 0 178.47555316698654 152.7696" height="152.7696" width="178.47555316698654"><g><svg viewBox="0 0 178.47555316698654 152.7696" height="152.7696" width="178.47555316698654"><g><svg viewBox="0 0 178.47555316698654 152.7696" height="152.7696" width="178.47555316698654"><g id="textblocktransform"><svg viewBox="0 0 178.47555316698654 152.7696" height="152.7696" width="178.47555316698654" id="textblock"><g><svg viewBox="0 0 178.47555316698654 152.7696" height="152.7696" width="178.47555316698654"><g transform="matrix(1,0,0,1,0,0)"><svg width="178.47555316698654" viewBox="0.5099999904632568 -38.15999984741211 44.58000183105469 38.15999984741211" height="152.7696" data-palette-color="#08acea"><path d="M0.51 0L18.43-38.16 26.64-38.16 45.09 0 36.96 0 33.91-6.42 11.62-6.42 8.67 0 0.51 0ZM14.58-12.79L30.86-12.79 22.61-30.13 14.58-12.79Z" opacity="1" transform="matrix(1,0,0,1,0,0)" fill="#08acea" class="wordmark-text-0" data-fill-palette-color="primary" id="text-0"></path></svg></g></svg></g></svg></g></svg></g></svg></g></svg></g></svg></g><g><path d="M212.838 0c30.402 0 58.24 10.976 79.768 29.183l-11.147 0c-19.26-14.022-42.974-22.294-68.621-22.295-25.647 0-49.361 8.272-68.621 22.295l-11.147 0c21.528-18.206 49.366-29.183 79.768-29.183zM336.438 123.6c0 30.94-11.368 59.224-30.156 80.905l0-10.967c14.611-19.491 23.267-43.704 23.267-69.938 0-26.234-8.656-50.447-23.267-69.938v-10.967c18.787 21.68 30.156 49.965 30.156 80.905zM212.838 247.2c-30.402 0-58.24-10.976-79.768-29.183h11.147c19.26 14.022 42.974 22.294 68.621 22.295 25.647 0 49.361-8.272 68.621-22.295h11.147c-21.528 18.206-49.366 29.183-79.768 29.183z" fill="#08acea" stroke="transparent" data-fill-palette-color="tertiary"></path></g></svg></g><defs></defs></svg><rect width="395.52" height="247.2" fill="none" stroke="none" visibility="hidden"></rect></g></svg></g></svg>